<mxfile host="app.diagrams.net" modified="2021-04-02T03:30:46.375Z" agent="5.0 (Windows NT 10.0; Win64; x64) AppleWebKit/537.36 (KHTML, like Gecko) Chrome/89.0.4389.90 Safari/537.36" etag="uwX48Pof85yqwzkC9n1p" version="14.5.3" type="github">
  <diagram id="DPJL8vr38tBG66mmo-Jf" name="Page-1">
    <mxGraphModel dx="868" dy="450" grid="0" gridSize="10" guides="1" tooltips="1" connect="1" arrows="1" fold="1" page="1" pageScale="1" pageWidth="827" pageHeight="1169" math="0" shadow="0">
      <root>
        <mxCell id="0" />
        <mxCell id="1" parent="0" />
        <mxCell id="BOlU8TuovL2IfH8dWrUd-3" value="" style="edgeStyle=orthogonalEdgeStyle;rounded=0;orthogonalLoop=1;jettySize=auto;html=1;" edge="1" parent="1" source="BOlU8TuovL2IfH8dWrUd-1" target="BOlU8TuovL2IfH8dWrUd-2">
          <mxGeometry relative="1" as="geometry" />
        </mxCell>
        <mxCell id="BOlU8TuovL2IfH8dWrUd-1" value="通过flume/syslog/restfulAPI 采集数据&amp;nbsp;" style="rounded=1;whiteSpace=wrap;html=1;strokeWidth=2;" vertex="1" parent="1">
          <mxGeometry x="80" y="69" width="342" height="46" as="geometry" />
        </mxCell>
        <mxCell id="BOlU8TuovL2IfH8dWrUd-5" value="" style="edgeStyle=orthogonalEdgeStyle;rounded=0;orthogonalLoop=1;jettySize=auto;html=1;" edge="1" parent="1" source="BOlU8TuovL2IfH8dWrUd-2" target="BOlU8TuovL2IfH8dWrUd-4">
          <mxGeometry relative="1" as="geometry" />
        </mxCell>
        <mxCell id="BOlU8TuovL2IfH8dWrUd-2" value="通过数据格式化框架，对数据进行ETL转换和清洗，转换为结构化数据源" style="whiteSpace=wrap;html=1;rounded=1;strokeWidth=2;align=center;" vertex="1" parent="1">
          <mxGeometry x="78" y="143" width="346" height="60" as="geometry" />
        </mxCell>
        <mxCell id="BOlU8TuovL2IfH8dWrUd-7" value="" style="edgeStyle=orthogonalEdgeStyle;rounded=0;orthogonalLoop=1;jettySize=auto;html=1;" edge="1" parent="1" source="BOlU8TuovL2IfH8dWrUd-4" target="BOlU8TuovL2IfH8dWrUd-6">
          <mxGeometry relative="1" as="geometry" />
        </mxCell>
        <mxCell id="BOlU8TuovL2IfH8dWrUd-4" value="实时加载关联分析配置列表，存储到缓存数据库中" style="whiteSpace=wrap;html=1;rounded=1;strokeWidth=2;" vertex="1" parent="1">
          <mxGeometry x="77" y="230" width="348" height="60" as="geometry" />
        </mxCell>
        <mxCell id="BOlU8TuovL2IfH8dWrUd-8" style="edgeStyle=orthogonalEdgeStyle;rounded=0;orthogonalLoop=1;jettySize=auto;html=1;exitX=0.5;exitY=1;exitDx=0;exitDy=0;" edge="1" parent="1" source="BOlU8TuovL2IfH8dWrUd-6">
          <mxGeometry relative="1" as="geometry">
            <mxPoint x="251" y="413" as="targetPoint" />
          </mxGeometry>
        </mxCell>
        <mxCell id="BOlU8TuovL2IfH8dWrUd-6" value="前置实时威胁分析引擎，结合配置列表，对数据源进行前置过滤、聚合字段切片计数存储、以及数据源封装操作，若符合基本特征过滤，则将封装后的数据源，通过中间件推送到消息队列" style="whiteSpace=wrap;html=1;rounded=1;strokeWidth=2;" vertex="1" parent="1">
          <mxGeometry x="78" y="319" width="346" height="60" as="geometry" />
        </mxCell>
        <mxCell id="BOlU8TuovL2IfH8dWrUd-9" value="威胁关联分析引擎。结合配置列表、数据库（Aerospike）聚合字段切片计数情况，对数据源进行关联分析实时分析，若符合规则配置，则认为属于命中规则表，封装后推送到消息队列" style="whiteSpace=wrap;html=1;rounded=1;strokeWidth=2;" vertex="1" parent="1">
          <mxGeometry x="80" y="414" width="346" height="60" as="geometry" />
        </mxCell>
      </root>
    </mxGraphModel>
  </diagram>
</mxfile>
